<svg width="76" height="52" viewBox="0 0 76 52" fill="none" xmlns="http://www.w3.org/2000/svg">
<g clip-path="url(#clip0_2_211)">
<path d="M49.606 13.0722L47.6536 15.2389C46.5689 16.3944 44.6888 16.5389 43.4595 15.4555L32.2511 5.92218C29.8648 3.89996 26.2492 4.04441 24.0798 6.21107L27.8401 2.09441C30.0094 -0.288927 33.7697 -0.505594 36.2283 1.58885L49.6783 13L49.606 13.0722ZM54.5232 14.7333C56.9818 16.8277 60.7421 16.6111 62.9114 14.2277L68.7687 7.79996L66.8163 9.96663C64.6469 12.35 60.8867 12.5666 58.4281 10.4722L47.2197 0.93885C45.9904 -0.144483 44.1103 -3.84897e-05 43.0256 1.15552L41.0732 3.32218L54.5232 14.7333Z" fill="white"/>
<path d="M64.2132 4.18889C65.2978 2.96111 67.1779 2.88889 68.4072 3.97222L70.6489 5.85L66.8887 9.96667C64.7193 12.35 60.9591 12.5667 58.5005 10.4722L64.2132 4.18889ZM32.2512 5.92222C29.8649 3.9 26.2493 4.04444 24.0076 6.21111L26.2493 8.08889C27.4786 9.17222 29.3587 9.02778 30.5157 7.87222L32.2512 5.92222Z" fill="#C6C6C6"/>
<path d="M43.1703 50.7722C42.8811 51.1333 42.5195 51.35 42.0856 51.5667C41.5794 51.7111 41.0733 51.8556 40.4948 51.8556C39.9163 51.8556 39.3378 51.7111 38.8316 51.4222C38.3254 51.1333 37.9638 50.7722 37.7469 50.1944C37.4577 49.6889 37.3853 49.0389 37.313 48.3889V47.8111C37.313 46.7278 37.6023 45.7889 38.1085 45.2111C38.6147 44.6333 39.4101 44.2722 40.3501 44.2722C41.2902 44.2722 41.7964 44.4889 42.3026 44.85C42.8088 45.2833 43.098 45.8611 43.1703 46.5833H41.8687C41.7241 45.7167 41.2179 45.2833 40.2778 45.2833C39.3378 45.2833 39.2655 45.5 38.9762 45.8611C38.687 46.2222 38.5423 46.8722 38.5423 47.6667V48.2444C38.5423 49.0389 38.687 49.6889 39.0485 50.1222C39.4101 50.5556 39.844 50.7722 40.4225 50.7722C41.0009 50.7722 41.5794 50.6278 41.7964 50.3389V48.8944H40.2778V47.9556H43.098V50.7722H43.1703ZM47.2921 48.8944H45.8459V51.7111H44.5442V44.3444H47.1475C48.0152 44.3444 48.666 44.5611 49.0999 44.9222C49.5338 45.2833 49.823 45.8611 49.823 46.5833C49.823 47.3056 49.6784 47.5222 49.4615 47.8111C49.2445 48.1 48.883 48.3889 48.4491 48.6056L50.1123 51.7111H48.7383L47.2198 48.8944H47.2921ZM45.8459 47.8111H47.1475C47.5813 47.8111 47.9429 47.6667 48.1598 47.5222C48.3768 47.3056 48.5214 47.0167 48.5214 46.6556C48.5214 46.2944 48.3768 45.9333 48.1598 45.7167C47.9429 45.5 47.5813 45.3556 47.1475 45.3556H45.7735V47.8111H45.8459ZM56.9819 48.2444C56.9819 48.9667 56.8373 49.6167 56.6204 50.1222C56.4034 50.6278 56.0419 51.0611 55.5357 51.35C55.0295 51.6389 54.5233 51.7833 53.9448 51.7833C53.3663 51.7833 52.7878 51.6389 52.354 51.35C51.8478 51.0611 51.4862 50.6278 51.2693 50.1222C51.0523 49.6167 50.9077 48.9667 50.9077 48.2444V47.8111C50.9077 47.0889 51.0523 46.4389 51.2693 45.9333C51.4862 45.3556 51.8478 44.9944 52.354 44.6333C52.7878 44.3444 53.3663 44.2 53.9448 44.2C54.5233 44.2 55.1018 44.3444 55.5357 44.6333C55.9696 44.9222 56.3311 45.3556 56.6204 45.8611C56.8373 46.4389 56.9819 47.0167 56.9819 47.7389V48.1722V48.2444ZM55.6803 47.8111C55.6803 47.0167 55.5357 46.3667 55.2464 45.9333C54.9572 45.5 54.5233 45.2833 53.9448 45.2833C53.3663 45.2833 52.9324 45.5 52.6432 45.9333C52.354 46.3667 52.137 46.9444 52.137 47.8111V48.2444C52.137 49.0389 52.2816 49.6889 52.6432 50.1222C52.9324 50.5556 53.4386 50.7722 53.9448 50.7722C54.451 50.7722 54.9572 50.5556 55.2464 50.1222C55.5357 49.6889 55.6803 49.0389 55.6803 48.2444V47.8833V47.8111ZM63.6346 44.3444V49.2556C63.6346 50.05 63.4177 50.6278 62.9115 51.1333C62.4053 51.5667 61.7545 51.8556 60.8868 51.8556C60.019 51.8556 59.3682 51.6389 58.862 51.2056C58.3559 50.7722 58.1389 50.1222 58.1389 49.3278V44.4167H59.4405V49.3278C59.4405 49.8333 59.5852 50.1944 59.8021 50.4833C60.019 50.7722 60.4529 50.8444 60.8868 50.8444C61.8991 50.8444 62.4053 50.3389 62.4053 49.2556V44.3444H63.7069H63.6346ZM66.3102 48.9667V51.7111H65.0086V44.3444H67.8287C68.6242 44.3444 69.3473 44.5611 69.7812 44.9944C70.215 45.4278 70.5043 46.0056 70.5043 46.7278C70.5043 47.45 70.2873 48.0278 69.7812 48.3889C69.275 48.8222 68.6242 48.9667 67.7564 48.9667H66.2379H66.3102ZM66.3102 47.9556H67.8287C68.2626 47.9556 68.6242 47.8111 68.8411 47.6667C69.058 47.45 69.2027 47.1611 69.2027 46.7278C69.2027 46.2944 69.058 46.0056 68.8411 45.7889C68.6242 45.5722 68.2626 45.4278 67.8287 45.4278H66.2379V48.0278L66.3102 47.9556ZM74.4091 38.2056C74.2645 38.35 74.1199 38.4222 73.9753 38.4944L74.6261 39.7944H74.2645L73.6137 38.5667H72.9629V39.7944H72.6736V36.9056H73.6137C73.9753 36.9056 74.1922 36.9778 74.3368 37.1222C74.4814 37.2667 74.5538 37.4833 74.5538 37.7C74.5538 37.9167 74.5538 38.0611 74.3368 38.2056H74.4091ZM73.6137 38.2778C74.0476 38.2778 74.2645 38.0611 74.2645 37.7C74.2645 37.3389 74.0476 37.1222 73.6137 37.1222H72.9629V38.2778H73.6137ZM15.5471 37.1944C15.8363 37.1944 16.0533 37.2667 16.1979 37.4111C16.3425 37.5556 16.4872 37.7722 16.4872 38.0611V39.2889C16.4872 39.5778 16.4148 39.7222 16.1979 39.8667C16.0533 40.0111 15.8363 40.0833 15.6194 40.2278C15.5471 40.2278 15.2578 40.3 14.7517 40.3722C14.2455 40.4444 13.667 40.4444 12.9439 40.3722C12.293 40.3722 11.7146 40.1556 11.353 39.8667C10.9191 40.1556 10.4852 40.3 10.0514 40.4444C9.6175 40.5889 9.03901 40.5889 8.3882 40.5889H8.17126C6.0019 40.5889 4.41103 40.2278 3.39866 39.5056C2.45861 38.7833 1.95242 37.5556 1.95242 35.8944V28.6H1.30161C1.01237 28.6 0.795429 28.5278 0.650805 28.3111C0.50618 28.1667 0.433868 27.8778 0.433868 27.5889V26.2889C0.433868 26.0722 0.433868 25.9278 0.50618 25.7833C0.578493 25.6389 0.650805 25.6389 0.650805 25.6389C0.867741 25.4222 1.15699 25.2778 1.51855 25.0611C1.8078 24.9167 2.16936 24.7722 2.53092 24.6278C2.89248 24.4833 3.39866 24.4833 3.90485 24.4833C4.41103 24.4833 4.62797 24.4833 4.91722 24.6278C5.20647 24.7722 5.49571 24.9167 5.71265 25.0611C5.92959 25.2778 6.07421 25.4944 6.21884 25.7111C6.29115 25.9278 6.43577 26.1444 6.43577 26.3611V35.0278C6.43577 35.5333 6.5804 35.8944 6.86964 36.0389C7.15889 36.1833 7.59276 36.3278 8.17126 36.4C8.67745 36.4 9.11132 36.4 9.47288 36.4C9.83444 36.4 10.196 36.3278 10.6299 36.1833V26.5056C10.6299 25.7833 10.7022 25.2778 10.9191 24.9889C11.1361 24.7722 11.5699 24.6278 12.2931 24.6278H13.3777C13.7393 24.6278 14.0285 24.6278 14.2455 24.6278C14.4624 24.6278 14.607 24.7722 14.7517 24.9167C14.8963 25.0611 14.9686 25.2056 14.9686 25.4944C14.9686 25.7111 14.9686 26.0722 14.9686 26.4333V31.1278V36.9778H15.6194L15.5471 37.1944ZM17.7888 28.6722C17.4995 28.6722 17.2826 28.6 17.138 28.3833C16.9933 28.1667 16.8487 27.95 16.8487 27.6611V26.3611C16.8487 26.2889 16.8487 26.1444 16.8487 26.0722C16.8487 25.9278 16.921 25.8556 17.0656 25.7111C17.2826 25.4944 17.5718 25.35 17.9334 25.1333C18.2226 24.9889 18.5842 24.8444 18.9458 24.7C19.3073 24.5556 19.8135 24.5556 20.3197 24.5556C21.0428 24.5556 21.6936 24.7722 22.1275 25.2056C22.2721 25.1333 22.4891 24.9889 22.7783 24.9889C22.9952 24.9889 23.2122 24.8444 23.4291 24.8444C23.7184 24.8444 24.0799 24.7 24.5138 24.7C24.9477 24.7 25.3815 24.7 25.8877 24.7C28.1294 24.7 29.7203 24.9889 30.7326 25.7833C31.745 26.5056 32.1789 27.7333 32.1789 29.3944V37.2667H32.8297C33.1189 37.2667 33.3359 37.3389 33.5528 37.5556C33.6974 37.7 33.8421 37.9167 33.8421 38.2056V39.4333C33.8421 39.7222 33.7697 39.8667 33.5528 40.0111C33.4082 40.1556 33.1912 40.2278 32.902 40.3722C32.8297 40.3722 32.5404 40.5167 32.0343 40.5889C31.5281 40.6611 30.9496 40.7333 30.1541 40.5889C29.5756 40.5889 29.1418 40.3722 28.8525 40.1556C28.5633 39.9389 28.274 39.65 28.1294 39.3611C27.9848 39.0722 27.8402 38.7833 27.8402 38.5667C27.8402 38.2778 27.8402 38.1333 27.8402 37.9889V30.1167C27.8402 29.6111 27.6955 29.25 27.4063 29.0333C27.117 28.8167 26.6832 28.7444 26.1047 28.6722C25.5985 28.6722 25.02 28.6722 24.5138 28.6722C24.0076 28.6722 23.5014 28.8167 22.9952 28.8889V38.4944C22.9952 39.2167 22.9229 39.7944 22.706 40.0111C22.4891 40.2278 22.0552 40.3722 21.3321 40.3722H20.2474C19.8858 40.3722 19.5966 40.3722 19.3796 40.3722C19.1627 40.3722 19.0181 40.2278 18.8735 40.0833C18.7288 39.9389 18.6565 39.7222 18.6565 39.5056C18.6565 39.2889 18.6565 38.9278 18.6565 38.5667V31.3444V28.7444H18.0057L17.7888 28.6722ZM39.844 39.3611C39.844 39.5778 39.6993 39.7944 39.5547 39.9389C39.4101 40.0833 39.1931 40.1556 38.9039 40.1556C38.6147 40.1556 38.2531 40.1556 37.8192 40.1556H37.4577C37.0238 40.1556 36.6622 40.1556 36.373 40.1556C36.156 40.1556 35.9391 40.0833 35.7945 39.9389C35.6499 39.7944 35.5775 39.65 35.5775 39.3611C35.5775 39.1444 35.5775 38.7833 35.5775 38.2778V28.4556H34.8544C34.5652 28.4556 34.3482 28.3833 34.2036 28.1667C34.059 28.0222 33.9144 27.7333 33.9144 27.4444V26.1444C33.9144 25.8556 33.9867 25.5667 34.2036 25.4222C34.4206 25.2056 34.7098 25.0611 35.0714 24.8444C35.3606 24.7 35.6499 24.5556 36.0837 24.4833C36.4453 24.3389 36.9515 24.3389 37.4577 24.3389C37.9638 24.3389 38.1808 24.3389 38.5423 24.5556C38.9039 24.7722 39.1208 24.8444 39.3378 25.0611C39.5547 25.2778 39.6993 25.4944 39.844 25.7111C39.9886 25.9278 39.9886 26.2167 39.9886 26.4333V38.2778C39.9886 38.7833 39.9886 39.1444 39.9886 39.3611H39.844ZM35.5052 19.2833C35.5052 18.9944 35.6499 18.85 35.7945 18.7056C35.9391 18.5611 36.156 18.4889 36.4453 18.4889C36.7345 18.4889 37.0961 18.4889 37.53 18.4889C37.9638 18.4889 38.47 18.4889 38.7593 18.4889C39.0485 18.4889 39.2655 18.5611 39.4824 18.7056C39.627 18.85 39.6993 18.9944 39.7716 19.2833C39.7716 19.5722 39.7716 19.9333 39.7716 20.4389V20.8722C39.7716 21.3778 39.7716 21.7389 39.7716 21.9556C39.7716 22.2444 39.627 22.3889 39.4824 22.5333C39.3378 22.6778 39.1208 22.75 38.8316 22.75C38.5423 22.75 38.1808 22.75 37.6746 22.75C37.1684 22.75 36.7345 22.75 36.4453 22.75C36.156 22.75 35.9391 22.6778 35.7945 22.5333C35.6499 22.3889 35.5775 22.2444 35.5052 21.9556C35.5052 21.6667 35.5052 21.3056 35.5052 20.8V20.3667C35.5052 19.8611 35.5052 19.5 35.5052 19.2833ZM46.7859 28.8889L50.8354 24.7722C51.0523 24.5556 51.2693 24.3389 51.4862 24.1944C51.7031 24.05 51.9924 23.9778 52.2093 23.9778C52.4263 23.9778 52.7155 23.9778 52.8601 24.1222C53.0048 24.2667 53.2217 24.3389 53.4386 24.5556L53.6556 24.7L53.9448 24.9889C54.2341 25.2056 54.451 25.4222 54.5956 25.5667C54.7402 25.7111 54.8126 26 54.8126 26.2889C54.8126 26.5778 54.8126 26.7944 54.6679 27.0111C54.5233 27.2278 54.3787 27.4444 54.0894 27.6611L50.6185 31.2L54.3787 37.3389H55.2464C55.5357 37.3389 55.7526 37.4111 55.8972 37.6278C56.0419 37.8444 56.1142 37.9889 56.1142 38.2778V39.5056C56.1142 39.65 56.1142 39.8667 55.8972 40.0111C55.7526 40.1556 55.5357 40.3 55.3187 40.3722C55.1741 40.3722 54.8849 40.4444 54.3787 40.5889C53.8725 40.7333 53.3663 40.7333 52.7878 40.7333C52.2093 40.7333 51.9201 40.5889 51.4862 40.3722C51.0523 40.1556 50.7631 39.8667 50.5461 39.5056L47.4367 34.3778L46.8582 34.9556V38.6389C46.8582 39.3611 46.7859 39.9389 46.569 40.1556C46.352 40.3722 45.9182 40.5167 45.1951 40.5167H44.1104C43.7488 40.5167 43.4596 40.5167 43.2426 40.5167C43.0257 40.5167 42.8811 40.3722 42.7364 40.2278C42.5918 40.0833 42.5195 39.8667 42.5195 39.65C42.5195 39.4333 42.5195 39.0722 42.5195 38.7111V20.5833C42.5195 20.15 42.5195 19.7889 42.5195 19.5C42.5195 19.2833 42.6641 19.0667 42.8088 18.9222C42.9534 18.7778 43.1703 18.7056 43.4596 18.7056C43.7488 18.7056 44.1104 18.7056 44.5442 18.7056H44.8335C45.2674 18.7056 45.6289 18.7056 45.9182 18.7056C46.2074 18.7056 46.4244 18.7778 46.4967 18.9222C46.6413 19.0667 46.7136 19.2111 46.7136 19.5C46.7136 19.7889 46.7136 20.0778 46.7136 20.5833V29.1056L46.7859 28.8889ZM64.7916 36.6167C65.1532 36.6167 65.5147 36.6167 66.0209 36.4722C66.5271 36.4722 67.0333 36.3278 67.6841 36.1833C67.901 36.1833 68.118 36.1833 68.2626 36.1111C68.4072 36.1111 68.6242 36.1111 68.7688 36.1111C69.2027 36.1111 69.4919 36.2556 69.6365 36.4722C69.7812 36.7611 69.9981 37.1944 70.2873 37.7722C70.432 38.1333 70.5043 38.4222 70.5043 38.6389C70.5043 39.2167 70.215 39.5778 69.6365 39.7944C69.058 40.0111 68.2626 40.1556 67.3225 40.3C66.3102 40.4444 65.1532 40.5889 63.7793 40.5889C62.4053 40.5889 61.3206 40.3722 60.4529 40.0111C60.019 39.7944 59.6575 39.5778 59.2959 39.2889C58.9343 39 58.5728 38.7111 58.2835 38.35C57.1265 36.9778 56.548 35.1 56.548 32.6444C56.548 30.1889 56.6927 30.4778 57.0542 29.4667C57.4158 28.4556 57.8497 27.6611 58.4282 27.0111C58.862 26.5056 59.2959 26.0722 59.7298 25.7833C60.1637 25.4222 60.5975 25.2056 61.1037 24.9889C61.6099 24.8444 62.1884 24.7 62.8392 24.6278C63.49 24.6278 64.2131 24.5556 65.0086 24.6278C65.2255 24.6278 65.5871 24.6278 65.9486 24.7C66.3102 24.7 66.7441 24.8444 67.1779 25.0611C67.6118 25.2056 68.0457 25.4944 68.4795 25.8556C68.9134 26.2167 69.275 26.5778 69.6365 27.1556C69.9981 27.6611 70.2873 28.3833 70.5043 29.1778C70.7212 29.9722 70.8658 30.9111 70.8658 32.0667C70.8658 33.2222 70.7935 33.0778 70.6489 33.4389C70.5043 33.7278 70.2873 34.0167 70.0704 34.1611C69.8535 34.3056 69.5642 34.3778 69.3473 34.45C69.1304 34.45 68.9134 34.45 68.7688 34.45H61.2483C61.2483 34.8111 61.3206 35.1 61.4653 35.3167C61.6099 35.5333 61.7545 35.8222 61.8991 35.9667C62.1884 36.2556 62.5499 36.4722 62.9838 36.5444C63.4177 36.6889 64.1408 36.6889 65.0086 36.6889L64.7916 36.6167ZM62.1161 28.7444C61.6099 29.1056 61.3206 29.8278 61.1037 30.8389H66.8887C66.7441 29.8278 66.3825 29.1056 65.8763 28.7444C65.3701 28.3833 64.7193 28.1667 63.9962 28.1667C63.2008 28.1667 62.6223 28.3111 62.1161 28.7444ZM73.5414 40.6611C72.3121 40.6611 71.2997 39.65 71.2997 38.4222C71.2997 37.1944 72.3121 36.1833 73.5414 36.1833C74.7707 36.1833 75.7831 37.1944 75.7831 38.4222C75.7831 39.65 74.7707 40.6611 73.5414 40.6611ZM73.5414 36.4722C72.4567 36.4722 71.5167 37.3389 71.5167 38.4944C71.5167 39.65 72.3844 40.5167 73.5414 40.5167C74.6984 40.5167 75.5661 39.65 75.5661 38.4944C75.5661 37.3389 74.6984 36.4722 73.5414 36.4722Z" fill="white"/>
</g>
<defs>
<clipPath id="clip0_2_211">
<rect width="76" height="52" fill="white"/>
</clipPath>
</defs>
</svg>
